HIERARCHY
ROOT Hips
{
 OFFSET 0.000000 0.000000 0.000000
 CHANNELS 6 Xposition Yposition Zposition Yrotation Xrotation Zrotation
 JOINT Chest
 {
  OFFSET 0.000000 11.395451 -0.039534
  CHANNELS 3 Yrotation Xrotation Zrotation
  JOINT Chest2
  {
   OFFSET 0.000000 9.398669 0.071813
   CHANNELS 3 Yrotation Xrotation Zrotation
   JOINT Chest3
   {
    OFFSET 0.000000 8.489801 0.000000
    CHANNELS 3 Yrotation Xrotation Zrotation
    JOINT Chest4
    {
     OFFSET 0.000000 8.489801 0.000000
     CHANNELS 3 Yrotation Xrotation Zrotation
     JOINT Neck
     {
      OFFSET 0.000000 12.404889 0.000000
      CHANNELS 3 Yrotation Xrotation Zrotation
      JOINT Head
      {
       OFFSET 0.000000 8.903270 0.092239
       CHANNELS 3 Yrotation Xrotation Zrotation
       End Site
       {
        OFFSET 0.000000 17.592497 0.007158
       }
      }
     }
     JOINT RightCollar
     {
      OFFSET -3.196775 6.966722 0.000000
      CHANNELS 3 Yrotation Xrotation Zrotation
      JOINT RightShoulder
      {
       OFFSET -15.955896 0.000000 0.000000
       CHANNELS 3 Yrotation Xrotation Zrotation
       JOINT RightElbow
       {
        OFFSET -24.792472 0.000000 0.000000
        CHANNELS 3 Yrotation Xrotation Zrotation
        JOINT RightWrist
        {
         OFFSET -20.900115 0.000000 0.025002
         CHANNELS 3 Yrotation Xrotation Zrotation
         End Site
         {
          OFFSET -16.056692 0.000000 0.000000
         }
        }
       }
      }
     }
     JOINT LeftCollar
     {
      OFFSET 3.196775 6.966722 0.000000
      CHANNELS 3 Yrotation Xrotation Zrotation
      JOINT LeftShoulder
      {
       OFFSET 15.955896 0.000000 0.000000
       CHANNELS 3 Yrotation Xrotation Zrotation
       JOINT LeftElbow
       {
        OFFSET 24.792472 0.000000 0.000000
        CHANNELS 3 Yrotation Xrotation Zrotation
        JOINT LeftWrist
        {
         OFFSET 20.900115 0.000000 0.025002
         CHANNELS 3 Yrotation Xrotation Zrotation
         End Site
         {
          OFFSET 16.056692 0.000000 0.000000
         }
        }
       }
      }
     }
    }
   }
  }
 }
 JOINT RightHip
 {
  OFFSET -9.568995 0.193718 0.019767
  CHANNELS 3 Yrotation Xrotation Zrotation
  JOINT RightKnee
  {
   OFFSET 0.000000 -56.649296 0.015402
   CHANNELS 3 Yrotation Xrotation Zrotation
   JOINT RightAnkle
   {
    OFFSET 0.000000 -41.365147 0.021264
    CHANNELS 3 Yrotation Xrotation Zrotation
    JOINT RightToe
    {
     OFFSET 0.000000 -7.465940 17.672538
     CHANNELS 3 Yrotation Xrotation Zrotation
     End Site
     {
      OFFSET 0.000000 -1.736315 7.837145
     }
    }
   }
  }
 }
 JOINT LeftHip
 {
  OFFSET 9.568995 0.193718 0.019767
  CHANNELS 3 Yrotation Xrotation Zrotation
  JOINT LeftKnee
  {
   OFFSET 0.000000 -56.649296 0.015402
   CHANNELS 3 Yrotation Xrotation Zrotation
   JOINT LeftAnkle
   {
    OFFSET 0.000000 -41.365147 0.021264
    CHANNELS 3 Yrotation Xrotation Zrotation
    JOINT LeftToe
    {
     OFFSET 0.000000 -7.465940 17.672538
     CHANNELS 3 Yrotation Xrotation Zrotation
     End Site
     {
      OFFSET 0.000000 -1.736315 7.837145
     }
    }
   }
  }
 }
}
MOTION
Frames: 14
Frame Time: 0.016667
7.586583 105.091027 253.985951 -31.379638 2.598490 0.115989 -0.788178 4.791957 -0.722431 -0.342549 2.130921 -0.312639 -0.342567 2.130886 -0.312634 -0.255817 1.598317 -0.233249 -0.974280 16.930670 0.223509 -1.882339 -4.733741 0.754941 0.861693 4.815625 7.213954 14.612400 -17.870458 51.442401 52.043839 -41.433197 22.903535 -10.550156 -18.397506 4.118985 1.326285 4.106652 -5.540873 13.964729 -16.345623 -56.583324 -46.440177 -45.786423 -33.611029 14.324304 -12.217513 -0.833319 0.450459 -13.653327 -1.421234 -2.195352 60.961334 -5.463629 13.907092 -3.096953 24.735182 -7.383793 -9.370755 -23.380488 7.504401 -16.428733 -2.974766 -1.917970 19.710350 0.559522 8.674525 -7.374138 -0.287673 0.000000 0.000000 0.000000
7.262156 105.306555 255.208408 -32.816289 2.521714 -0.114782 -0.696209 4.774983 -0.687843 -0.302089 2.123176 -0.298258 -0.302103 2.123135 -0.298252 -0.225524 1.592472 -0.222609 -0.678767 17.108809 0.182541 -1.319019 -4.407381 0.573547 0.876878 4.647148 7.336455 13.810860 -17.741261 51.736248 51.941533 -41.262351 23.107108 -10.645630 -18.318048 4.137900 1.414606 4.181680 -5.542027 13.180026 -16.148363 -56.479904 -46.545106 -45.821277 -33.261295 14.206008 -12.349340 -0.738542 -1.435867 -15.484325 -0.933734 -2.928550 62.104236 -7.196878 12.390196 -4.203820 19.910993 -6.449986 -6.190939 -18.993498 8.687397 -15.240110 -3.064168 -3.283970 19.128711 0.538430 10.289955 -7.879485 -0.230201 -0.000000 -0.000000 -0.000000
6.933132 105.510481 256.408361 -34.157322 2.433564 -0.345334 -0.664735 4.767590 -0.643783 -0.288555 2.119847 -0.279036 -0.288555 2.119847 -0.279036 -0.215424 1.590018 -0.208252 -0.347732 17.253696 0.151714 -0.695230 -4.141634 0.400576 0.875130 4.445148 7.449850 13.163338 -17.515955 51.931139 51.868520 -41.140989 23.286256 -10.733419 -18.264955 4.164967 1.491021 4.206316 -5.539752 12.645727 -15.953452 -56.430816 -46.557015 -45.817236 -33.095284 14.107306 -12.449840 -0.641153 -2.965298 -17.183909 -0.405245 -3.009894 62.643367 -8.118091 11.238068 -5.374464 16.124130 -5.086496 -3.511632 -14.565223 10.055103 -14.053066 -3.121919 -4.201217 18.521310 0.591060 11.194814 -8.352300 -0.115264 -0.000000 0.000000 -0.000000
6.616211 105.696354 257.567216 -35.369384 2.333159 -0.570030 -0.724948 4.784060 -0.592026 -0.315798 2.127199 -0.255413 -0.315796 2.127215 -0.255416 -0.235930 1.595554 -0.190443 0.034715 17.343443 0.126155 0.020673 -3.976837 0.221154 0.856925 4.214869 7.537166 12.816541 -17.192271 51.941518 51.828659 -41.127446 23.401324 -10.818437 -18.264630 4.211520 1.542835 4.141313 -5.522006 12.604430 -15.814492 -56.508169 -46.387775 -45.724970 -33.291568 14.066068 -12.488175 -0.534929 -3.944839 -18.770499 0.076871 -1.862852 62.689174 -7.507317 10.148276 -6.293118 14.230153 -3.220874 -1.712957 -9.346212 11.537374 -12.930943 -3.043961 -3.953123 17.965685 0.709952 10.695690 -8.824318 0.105417 -0.000000 0.000000 -0.000000
6.294693 105.870625 258.703567 -36.485723 2.222745 -0.794393 -0.845653 4.811243 -0.532100 -0.369984 2.139300 -0.227504 -0.369985 2.139298 -0.227506 -0.276661 1.604608 -0.169315 0.453526 17.401048 0.112464 0.799149 -3.869335 0.052033 0.822637 3.950201 7.618407 12.624865 -16.781770 51.850583 51.811058 -41.165182 23.497292 -10.898788 -18.291566 4.266285 1.583586 4.026420 -5.496724 12.812017 -15.679271 -56.635975 -46.132472 -45.595638 -33.668762 14.046763 -12.497250 -0.426317 -4.546915 -20.247733 0.537357 0.041137 62.190145 -5.911193 9.280360 -6.952630 13.294911 -1.266886 -0.619145 -3.899580 13.204682 -11.813323 -2.918276 -3.274323 17.371746 0.831491 9.479205 -9.265818 0.408976 0.000000 0.000000 0.000000
5.954699 106.023352 259.815041 -37.421555 2.130170 -1.017636 -1.028233 4.849779 -0.464511 -0.451712 2.156481 -0.195504 -0.451712 2.156481 -0.195504 -0.338054 1.617506 -0.145017 0.863761 17.432584 0.100864 1.560624 -3.807885 -0.109818 0.783223 3.658224 7.693302 12.425369 -16.353643 51.714607 51.767932 -41.207113 23.672223 -10.941639 -18.334441 4.306719 1.610759 3.939402 -5.463709 12.934723 -15.557143 -56.755777 -45.954055 -45.480729 -33.952927 14.004972 -12.523324 -0.322769 -4.906636 -21.559616 0.937318 1.491409 61.026375 -4.519043 8.652748 -7.485005 12.649698 0.000000 -0.000000 0.000000 14.403719 -10.767850 -2.734318 -2.712299 16.792490 0.869046 8.649114 -9.678327 0.680544 0.000000 -0.000000 -0.000000
5.594042 106.152918 260.892112 -38.110339 2.070983 -1.249800 -1.302311 4.903793 -0.384735 -0.574184 2.180570 -0.157057 -0.574180 2.180601 -0.157059 -0.430019 1.635625 -0.115733 1.261636 17.429501 0.091708 2.298463 -3.809017 -0.263084 0.743555 3.306593 7.766392 12.173892 -15.905263 51.536360 51.674673 -41.233247 23.993456 -10.924969 -18.395022 4.320013 1.617131 3.916641 -5.416772 12.892170 -15.447496 -56.861674 -45.926851 -45.396774 -34.042186 13.916357 -12.581943 -0.234564 -5.049158 -22.725246 1.249354 1.994797 59.157263 -3.794865 8.407059 -7.918532 12.160879 0.286377 0.224408 1.127785 14.769039 -9.829628 -2.483670 -2.534980 16.244523 0.786711 8.783421 -10.056748 0.848561 -0.000000 0.000000 -0.000000
5.214908 106.260940 261.944305 -38.618971 2.031912 -1.482713 -1.638011 4.970057 -0.297616 -0.724105 2.209989 -0.114587 -0.724100 2.210020 -0.114590 -0.542590 1.657678 -0.083314 1.651397 17.400264 0.085180 3.020981 -3.856937 -0.409315 0.699233 2.927018 7.835410 11.914838 -15.442472 51.311399 51.553927 -41.261307 24.394518 -10.871405 -18.473737 4.320293 1.609488 3.922110 -5.364899 12.764394 -15.352645 -56.959008 -45.973587 -45.325059 -34.038538 13.803856 -12.655560 -0.150671 -4.925368 -23.740205 1.458729 2.024024 56.632038 -3.305262 8.353462 -8.194329 11.984586 0.123600 0.111151 0.568904 14.671884 -8.953212 -2.197020 -2.467837 15.712504 0.650136 9.307843 -10.410603 0.970093 0.000000 0.000000 0.000000
4.809972 106.342329 262.997822 -39.062944 1.997778 -1.688676 -1.947535 5.036989 -0.217239 -0.862350 2.239558 -0.075297 -0.862350 2.239558 -0.075297 -0.646404 1.679779 -0.053304 1.999719 17.375438 0.070528 3.669911 -3.895144 -0.556432 0.646557 2.621924 7.884673 11.617911 -15.044004 51.089270 51.430691 -41.300187 24.771338 -10.814270 -18.557218 4.325614 1.605849 3.923995 -5.332538 12.459065 -15.287147 -57.006607 -46.025260 -45.265612 -33.977328 13.693361 -12.740555 -0.047058 -4.557458 -24.509177 1.552006 1.876093 53.486926 -2.852924 8.089471 -8.364478 11.870782 0.000000 0.000000 0.000000 14.564131 -8.084595 -1.932605 -2.239900 15.205823 0.543594 9.599958 -10.771604 1.115626 0.000000 0.000000 0.000000
4.380177 106.394574 264.063927 -39.489906 1.959514 -1.864270 -2.189657 5.101740 -0.142148 -0.970624 2.268075 -0.039016 -0.970624 2.268059 -0.039014 -0.727728 1.701100 -0.025652 2.292184 17.363497 0.040028 4.220881 -3.908794 -0.713382 0.577507 2.466756 7.894399 11.263263 -14.763450 50.873527 51.322827 -41.356481 25.097134 -10.756527 -18.650527 4.339384 1.604955 3.921310 -5.337056 11.870553 -15.259970 -56.958316 -46.068783 -45.220249 -33.836082 13.580060 -12.847234 0.078287 -3.828038 -24.998067 1.475390 1.595874 49.688943 -2.369073 7.434127 -8.488900 11.641557 -0.000000 0.000000 -0.000000 14.650689 -7.196460 -1.701112 -1.686621 14.708698 0.499401 9.318276 -11.136677 1.343597 -0.000000 -0.000000 0.000000
3.924581 106.420185 265.131355 -39.852295 1.927309 -2.013072 -2.405671 5.165831 -0.073344 -1.067248 2.296280 -0.005757 -1.067246 2.296275 -0.005756 -0.800305 1.722218 -0.000305 2.543077 17.355161 0.001371 4.697808 -3.915675 -0.871056 0.499052 2.384036 7.877111 10.869096 -14.545728 50.669469 51.212549 -41.423743 25.399028 -10.695717 -18.748827 4.358449 1.607958 3.913589 -5.360875 11.104795 -15.259151 -56.856634 -46.113781 -45.187781 -33.639952 13.469007 -12.966089 0.222878 -2.841843 -25.241663 1.270451 1.104989 45.268883 -1.963005 6.582923 -8.504000 11.403539 0.000000 0.000000 -0.000000 14.723481 -6.318358 -1.486840 -0.975888 14.238481 0.466596 8.802651 -11.507964 1.604117 0.000000 0.000000 0.000000
3.433036 106.421603 266.192505 -40.122757 1.914706 -2.117655 -2.631768 5.223077 -0.028299 -1.168105 2.321502 0.017086 -1.168105 2.321502 0.017086 -0.876024 1.741101 0.017252 2.761868 17.354075 -0.033393 5.113949 -3.909174 -1.010220 0.430080 2.247192 7.865126 10.462773 -14.302411 50.528711 51.072775 -41.491752 25.652777 -10.656187 -18.822640 4.390549 1.636813 3.869883 -5.374436 10.387220 -15.269202 -56.794733 -46.128822 -45.165703 -33.494945 13.402465 -13.066185 0.402537 -1.960666 -25.245784 1.078979 0.530194 40.358724 -1.681973 5.709038 -8.281326 11.313603 0.000000 0.000000 0.000000 14.611747 -5.485822 -1.304362 -0.336232 13.856280 0.400927 8.452081 -11.926394 1.807240 0.000000 -0.000000 -0.000000
2.899182 106.402744 267.230721 -40.290894 1.937086 -2.178414 -2.884216 5.271215 -0.013978 -1.280322 2.342815 0.026590 -1.280324 2.342814 0.026592 -0.960212 1.757064 0.024853 2.966820 17.369754 -0.063004 5.502256 -3.871482 -1.134356 0.372810 1.980155 7.879435 10.068981 -13.973077 50.476922 50.883501 -41.567132 25.830254 -10.656560 -18.854235 4.445958 1.717658 3.774924 -5.352443 9.757722 -15.287493 -56.803836 -46.106807 -45.160385 -33.414875 13.404485 -13.144765 0.616733 -1.188003 -24.968677 0.950801 -0.182487 34.793178 -1.576148 4.740198 -7.673636 11.523508 -0.000000 0.000000 -0.000000 14.226289 -4.729375 -1.149109 0.087398 13.584327 0.276115 8.483836 -12.411188 1.912602 0.000000 -0.000000 -0.000000
2.329378 106.359692 268.262660 -40.367212 1.979984 -2.195220 -3.146882 5.311319 -0.022698 -1.396808 2.360711 0.025981 -1.396809 2.360716 0.025983 -1.047558 1.770493 0.024884 3.139568 17.392329 -0.088907 5.829456 -3.821855 -1.240186 0.325156 1.659672 7.901583 9.664351 -13.612472 50.485183 50.666768 -41.642555 25.957911 -10.676935 -18.860124 4.513936 1.824583 3.644747 -5.319301 9.176491 -15.318869 -56.853698 -46.059096 -45.166323 -33.383807 13.452397 -13.207965 0.864469 -0.525172 -24.451149 0.844765 -0.891533 28.735584 -1.518255 3.704300 -6.816278 11.839035 -0.000000 0.000000 -0.000000 13.652697 -4.017883 -1.028569 0.441583 13.399511 0.129562 8.682623 -12.943578 1.954554 -0.000000 -0.000000 -0.000000
